<svg width="38" height="38" viewBox="0 0 38 38" fill="none" xmlns="http://www.w3.org/2000/svg">
<path d="M23.3011 28.6768C22.2784 29.6532 19.0115 32.3638 15.844 33.3238H15.8345C15.7998 33.3374 12.2987 34.6121 9.44236 34.6121C9.00796 34.6175 8.57355 34.5835 8.14527 34.512C7.65708 34.0176 2.67642 28.9035 2.10583 24.7842C7.11101 28.5358 11.6396 29.3631 14.5626 29.3931C14.7485 29.4353 15.1325 29.4557 15.9223 29.4557C17.3644 29.4523 19.7932 29.3148 23.3011 28.6768Z" fill="#6984A5"/>
<path d="M14.5518 29.1513C13.0185 29.0315 8.57233 28.386 6.2226 26.918L6.17834 26.8915H6.16064C5.83517 26.7444 1.53948 24.7242 0 21.9421C0.0217883 21.296 0.317972 14.257 2.94346 11.0242C3.62026 17.2311 6.09868 21.1006 8.07052 23.259C8.18218 23.4197 8.30406 23.5722 8.43479 23.7172C8.66016 23.98 9.04758 24.4124 9.61748 24.9796C10.5557 25.9069 12.1517 27.3667 14.5518 29.1513Z" fill="#F1A350"/>
<path d="M8.30784 23.0547C7.41997 22.1198 5.02122 19.0191 4.19735 15.3525L4.18577 15.3008L4.17692 15.2933C4.05777 14.9031 2.73413 10.3562 3.4191 7.48014C3.92908 7.02191 9.19027 2.38713 13.3266 2.0426C9.31079 6.8442 8.24248 11.3203 8.05592 14.2359C7.97421 14.5613 7.90204 15.5445 7.88569 16.5318C7.87003 17.8609 7.92451 20.0493 8.30784 23.0547Z" fill="#6984A5"/>
<path d="M14.4991 8.03851V8.0426C14.1696 8.23597 13.3103 8.98494 12.7397 9.52556C11.7769 10.4386 10.2545 12.0094 8.37524 14.3878C8.42154 13.1009 8.9574 9.21712 11.0035 6.06191L11.0327 6.01697V6.00608C11.2254 5.65065 13.5554 1.51905 16.0842 0C16.7685 0.0442574 23.7605 0.561048 26.9007 3.27573C20.6632 3.76188 16.7147 6.13068 14.4991 8.03851Z" fill="#F1A350"/>
<path d="M34.8665 13.4699C29.9614 9.60934 25.4615 8.66836 22.5384 8.56895C22.3771 8.54171 22.2137 8.52401 22.0502 8.5172C21.7602 8.49541 21.2713 8.46886 20.5932 8.46886C19.2096 8.46886 16.9171 8.5778 13.7135 9.08574C14.6252 8.17131 17.6483 5.67723 21.289 4.74579L21.3401 4.73285L21.3496 4.72332C21.7398 4.57693 24.9249 3.59101 27.5756 3.59101C28.0979 3.58556 28.6194 3.63186 29.1328 3.73127C29.6053 4.22695 34.3967 9.34516 34.8665 13.4699Z" fill="#6984A5"/>
<path d="M34.0421 30.0407C33.5464 30.5146 28.4364 35.3141 24.3136 35.7914C28.1735 30.8693 29.0982 26.3591 29.1921 23.4361C29.2643 23.0868 29.3031 22.0348 29.2888 21.1368C29.2684 19.8084 29.1417 17.6241 28.6624 14.6316C29.5796 15.5385 32.0804 18.561 33.0173 22.2003L33.0296 22.25L33.0384 22.2582C33.0732 22.3589 33.2012 22.7566 33.3639 23.3401C33.6778 24.4738 34.1067 26.3101 34.1776 28.0368C34.2116 28.7082 34.166 29.3809 34.0421 30.0407Z" fill="#6984A5"/>
<path d="M26.8484 30.8372L26.8225 30.8856V30.8971C26.6598 31.2675 24.6689 35.5673 22.2647 37.2825H21.9692C20.6932 37.2825 14.3474 37.1626 11.2262 34.8667C17.3916 33.893 21.1358 31.2274 23.1968 29.1534C23.3568 29.0315 23.5093 28.9001 23.6537 28.7605C23.9172 28.5161 24.3482 28.1028 24.9031 27.4982C25.8169 26.5034 27.2379 24.8128 28.9203 22.3085C28.9278 23.6062 28.68 27.4587 26.8484 30.8372Z" fill="#F1A350"/>
<path d="M29.8744 15.213H29.8703C29.6837 14.8787 28.9538 14.0038 28.4268 13.4223C27.5315 12.4377 25.9974 10.8799 23.6606 8.94617C24.9468 9.02038 28.817 9.63931 31.9279 11.7541L31.9722 11.7848H31.9831C32.3337 11.985 36.4136 14.4028 37.8768 16.9663C37.8183 17.6499 37.149 24.6276 34.3669 27.7093C34.0148 21.4683 31.7332 17.4708 29.8744 15.213Z" fill="#F1A350"/>
<path d="M25.2667 15.3969V20.4784C25.2667 21.386 25.1775 22.1772 25.008 22.8574C24.6825 23.9182 24.067 24.8517 23.2533 25.5639C22.5936 26.144 21.8031 26.5791 20.9315 26.8194C20.4297 26.9576 19.9014 27.0319 19.356 27.0319H18.5205C17.9445 27.0319 17.3875 26.9495 16.8612 26.7949C17.5945 26.5818 18.2686 26.2291 18.8535 25.7688C18.8821 25.7457 18.912 25.7225 18.9406 25.698C18.9788 25.6674 19.0155 25.636 19.053 25.6034C19.9905 25.0273 20.6496 24.0108 20.9486 22.504C21.0527 22.0716 21.1092 21.6209 21.112 21.1565C21.1242 20.9373 21.1297 20.7112 21.1297 20.477V12.653L25.2667 15.3969Z" fill="#F1A350"/>
<path d="M18.8534 25.7694C18.2686 26.2297 17.5945 26.5824 16.8612 26.7955C16.0686 26.5647 15.3455 26.1718 14.7287 25.6543H14.728C13.8755 24.9414 13.2266 23.9916 12.8835 22.9049C12.8835 22.9042 12.8828 22.9029 12.8828 22.9022C12.7057 22.2138 12.6097 21.4083 12.6097 20.4782V13.7218L16.5956 10.25V21.121C16.5956 22.99 17.4624 24.6555 18.816 25.7374C18.8283 25.749 18.8405 25.7592 18.8534 25.7694Z" fill="#6984A5"/>
</svg>
